Coordinates
version=1
nRows=24
nColumns=24
inDegrees=yes

Units are S.I. units (second, meters, Newtons, ...)
Angles are in degrees.

endheader
time	pelvis_tilt	pelvis_list	pelvis_rotation	pelvis_tx	pelvis_ty	pelvis_tz	hip_flexion_r	hip_adduction_r	hip_rotation_r	knee_angle_r	ankle_angle_r	subtalar_angle_r	mtp_angle_r	hip_flexion_l	hip_adduction_l	hip_rotation_l	knee_angle_l	ankle_angle_l	subtalar_angle_l	mtp_angle_l	lumbar_extension	lumbar_bending	lumbar_rotation
      3.12000000	    -11.40499984	     -0.89595834	      8.54600499	     -1.89463397	     -0.03465190	     -0.30298081	     36.39820140	     -4.58214282	    -15.23596212	    -10.65750232	     -3.18310568	     -2.54403473	     11.36851628	     -3.61220938	      0.92669483	     -3.02284056	    -14.92664336	      6.66700616	     -3.66608909	      2.81238357	      5.50326263	      1.29857969	    -12.19762385
      3.12500000	    -11.40804767	     -1.06866731	      8.57952034	     -1.88605575	     -0.03536125	     -0.30248249	     36.33084148	     -4.41179951	    -15.32327609	    -11.14945401	     -3.20672007	     -2.35734119	     11.50392688	     -3.77835695	      0.54560184	     -3.19935696	    -15.50287672	      6.28833376	     -3.22787227	      2.96161918	      5.66963972	      1.47926303	    -12.21435319
      3.13000000	    -11.41369654	     -1.26361457	      8.58635329	     -1.87739548	     -0.03604547	     -0.30190023	     36.24527501	     -4.19514470	    -15.38786992	    -11.64292546	     -3.41052668	     -2.28187693	     11.67149505	     -3.91685094	      0.12907482	     -3.40174891	    -16.12192208	      5.86452739	     -2.75546936	      3.16977360	      5.85334291	      1.67738877	    -12.21452844
      3.13500000	    -11.38832841	     -1.45730813	      8.57056153	     -1.86874483	     -0.03666722	     -0.30118798	     36.11145308	     -3.94021638	    -15.34496170	    -12.11845268	     -3.89813006	     -2.50624314	     12.03052623	     -4.05124724	     -0.31345101	     -3.72481021	    -16.78663496	      5.34903019	     -2.21293405	      3.67865617	      5.99795576	      1.87317975	    -12.21886543
      3.14000000	    -11.42571933	     -1.63223328	      8.51269407	     -1.86005792	     -0.03728630	     -0.30062534	     36.07303527	     -3.72523237	    -15.44800348	    -12.68184712	     -4.39796641	     -2.54163712	     12.06033215	     -4.13042930	     -0.67335192	     -3.83250801	    -17.43718340	      4.67425216	     -2.06844480	      3.66725582	      6.21657974	      2.07414240	    -12.14560431
      3.14500000	    -11.40256505	     -1.93077827	      8.42119796	     -1.85123100	     -0.03779967	     -0.29973732	     35.88125461	     -3.29428729	    -15.29667384	    -12.98277905	     -5.67275185	     -3.40459951	     13.88194213	     -4.21726283	     -1.25445510	     -4.21688690	    -18.09922116	      3.62385584	     -1.70027384	      6.05215963	      6.40513527	      2.37858941	    -12.04807700
      3.15000000	    -11.50371351	     -2.22784478	      8.34019608	     -1.84247538	     -0.03832881	     -0.29902535	     35.87760097	     -2.92753084	    -15.27465918	    -13.45749569	     -6.62376327	     -3.94116258	     13.78366626	     -4.10272327	     -1.77311861	     -4.39921229	    -18.93820039	      2.94213274	     -1.33358845	      6.02503638	      6.72415632	      2.68595604	    -11.99280920
      3.15500000	    -11.55237725	     -2.50830364	      8.19125439	     -1.83381856	     -0.03873288	     -0.29805465	     35.82513720	     -2.49100410	    -15.04748256	    -13.90539685	     -7.74062454	     -4.87390463	     13.64707903	     -3.98403021	     -2.31032539	     -4.75689202	    -19.86639813	      2.13907605	     -0.89166913	      6.16148224	      6.96027476	      2.97082599	    -11.84692578
      3.16000000	    -11.61623713	     -2.84574520	      8.01604087	     -1.82513613	     -0.03903414	     -0.29712840	     35.79353951	     -1.99321646	    -14.80002043	    -14.35964404	     -8.86935749	     -5.85478227	     13.44764091	     -3.80654790	     -2.89773680	     -5.06737572	    -20.83875622	      1.17734553	     -0.56244354	      6.40174029	      7.22954961	      3.32920386	    -11.69159845
      3.16500000	    -11.69015817	     -3.19877566	      7.79605234	     -1.81648532	     -0.03925892	     -0.29611595	     35.78649849	     -1.44393599	    -14.44088401	    -14.83719910	     -9.94513121	     -6.94918586	     13.15732306	     -3.56323825	     -3.51121425	     -5.43740461	    -21.88279842	      0.05638405	     -0.25545663	      6.82246731	      7.50335023	      3.70712833	    -11.49262500
      3.17000000	    -11.71689198	     -3.61138066	      7.52417337	     -1.80778922	     -0.03933562	     -0.29503724	     35.73176142	     -0.79509055	    -14.03132246	    -15.34891062	    -10.77303073	     -7.91738869	     12.32675496	     -3.35389431	     -4.21110608	     -5.87801352	    -22.84595457	     -1.77187587	     -0.26243869	      9.67745783	      7.74038437	      4.16454415	    -11.24181626
      3.17500000	    -11.83582687	     -3.96655293	      7.31482613	     -1.79926985	     -0.03941344	     -0.29405305	     35.78640914	     -0.24998377	    -13.59331717	    -15.89512350	    -11.52142803	     -8.96903832	     11.96802717	     -2.91976852	     -4.81631119	     -6.12301893	    -24.08408294	     -3.11811119	     -0.07469350	      9.67337190	      8.04817378	      4.54330347	    -11.08778274
      3.18000000	    -11.89688523	     -4.36416622	      7.00283008	     -1.79066838	     -0.03938219	     -0.29288700	     35.77878798	      0.42302584	    -13.04488629	    -16.48799773	    -11.87062716	     -9.79703463	     10.65522238	     -2.54089213	     -5.50455117	     -6.55137444	    -25.26401425	     -5.03268508	     -0.08265408	     11.58328876	      8.30246771	      4.98362780	    -10.82551926
      3.18500000	    -12.00120806	     -4.67737927	      6.76647427	     -1.78224991	     -0.03932339	     -0.29184225	     35.81322020	      0.95586821	    -12.59124079	    -17.08096882	    -12.17800111	    -10.63934762	     10.39973498	     -2.00481850	     -6.07154224	     -6.76213425	    -26.64894021	     -6.69507259	     -0.02394173	     11.49939974	      8.57078593	      5.32394625	    -10.63296420
      3.19000000	    -12.10611980	     -4.97634782	      6.47695090	     -1.77384381	     -0.03924714	     -0.29069978	     35.83366733	      1.51962918	    -12.07032416	    -17.67305836	    -12.27155429	    -11.37428128	     10.11137044	     -1.42452592	     -6.63439316	     -7.03404885	    -28.08549846	     -8.53641615	     -0.04040112	     11.65639815	      8.83021028	      5.65306907	    -10.39954755
      3.19500000	    -12.16639094	     -5.30098409	      6.21012767	     -1.76544278	     -0.03906610	     -0.28959407	     35.78220942	      2.09394394	    -11.68720827	    -18.27708401	    -11.95986201	    -11.75606157	      9.10810239	     -0.85509175	     -7.23595924	     -7.24776364	    -29.46733511	    -10.94247759	     -0.34618026	     13.65561170	      9.04476062	      6.01764731	    -10.19666562
      3.20000000	    -12.19479670	     -5.55879160	      5.94391165	     -1.75715543	     -0.03879516	     -0.28853784	     35.65863076	      2.60603268	    -11.32932574	    -18.80309102	    -11.72473491	    -12.18380618	      9.07815445	     -0.24831012	     -7.74073523	     -7.38038630	    -31.01449771	    -12.93261950	     -0.55555555	     13.34279155	      9.19550348	      6.31879304	     -9.96634239
      3.20500000	    -12.25321112	     -5.78864353	      5.66817414	     -1.74895785	     -0.03855392	     -0.28746875	     35.54236292	      3.09462046	    -10.97897157	    -19.30192485	    -11.36597955	    -12.54309661	      9.07920588	      0.44980700	     -8.20739118	     -7.48096392	    -32.62766709	    -14.93519790	     -0.85093765	     13.07374357	      9.35928121	      6.59543074	     -9.74677025
      3.21000000	    -12.25985035	     -6.05672468	      5.40535943	     -1.74079608	     -0.03827347	     -0.28643796	     35.32452393	      3.61650620	    -10.69798042	    -19.73304659	    -10.87244425	    -12.78651656	      9.15346799	      1.14639461	     -8.71361685	     -7.53570461	    -34.29962509	    -16.81397292	     -1.22195483	     12.75695986	      9.46430016	      6.91651637	     -9.53865336
      3.21500000	    -12.30476393	     -6.25976163	      5.11895766	     -1.73279469	     -0.03797576	     -0.28537580	     35.12947045	      4.07938362	    -10.44185290	    -20.13430912	    -10.37348515	    -12.98545034	      9.23765448	      1.92753341	     -9.12172438	     -7.53830945	    -35.99992193	    -18.67099381	     -1.75727879	     12.40225822	      9.57296335	      7.16934108	     -9.30044911
      3.22000000	    -12.35712117	     -6.45060130	      4.82544026	     -1.72488458	     -0.03766497	     -0.28433507	     34.90793316	      4.52519152	    -10.22369969	    -20.48453723	     -9.81139584	    -13.08217317	      9.36566289	      2.76134831	     -9.49781056	     -7.50173157	    -37.73722329	    -20.37258125	     -2.38867046	     12.01025925	      9.67099329	      7.41444365	     -9.06468823
      3.22500000	    -12.48783842	     -6.55971071	      4.53890089	     -1.71716625	     -0.03738981	     -0.28337149	     34.75311698	      4.86152113	     -9.99481855	    -20.82281931	     -9.17111503	    -13.02244485	      9.57169714	      3.73406579	     -9.72353287	     -7.33166825	    -39.50878703	    -21.93889229	     -3.20756383	     11.48928704	      9.81589611	      7.56784366	     -8.82880773
      3.23000000	    -12.56753512	     -6.73055979	      4.25143459	     -1.70949706	     -0.03707023	     -0.28246506	     34.50063718	      5.25254591	     -9.86090404	    -21.07554326	     -8.52104031	    -12.88975445	      9.86069236	      4.70252768	    -10.01953179	     -7.20459200	    -41.33363822	    -23.20356197	     -4.09009203	     10.83339797	      9.90022955	      7.80844412	     -8.60759388
      3.23500000	    -12.68709949	     -6.90465343	      3.93709503	     -1.70192230	     -0.03681513	     -0.28161965	     34.27390948	      5.63179272	     -9.79726389	    -21.29629206	     -7.84413740	    -12.61542076	     10.41141620	      5.75983410	    -10.29408200	     -7.08053256	    -43.22548072	    -24.05460478	     -5.00379223	      9.67467146	     10.00569758	      8.05623672	     -8.32248696
